<svg width="400" height="400" viewBox="0 0 400 400" fill="none" xmlns="http://www.w3.org/2000/svg">
<path d="M341.79 167.36L337.61 205.13L311.7 202.26V164.03L341.79 167.36Z" stroke="#6A0BFF" stroke-width="12" stroke-miterlimit="10" stroke-linecap="round" stroke-linejoin="round"/>
<path d="M311.7 148.65C311.7 139.21 304.05 131.57 294.62 131.57H87.22L89.76 108.65C90.69 100.23 98.27 94.16 106.69 95.09L331.6 119.97C340.02 120.9 346.09 128.48 345.16 136.9L341.79 167.36L337.61 205.13L329.46 278.81C328.53 287.23 320.95 293.3 312.53 292.37L311.15 292.22C311.51 290.85 311.7 289.41 311.7 287.93" stroke="#191919" stroke-width="12" stroke-miterlimit="10" stroke-linecap="round" stroke-linejoin="round"/>
<path d="M294.62 305.01H71.82C62.39 305.01 54.74 297.36 54.74 287.93V148.64C54.74 139.21 62.39 131.56 71.82 131.56H294.62C304.05 131.56 311.7 139.21 311.7 148.64V287.93C311.7 297.36 304.05 305.01 294.62 305.01Z" stroke="#191919" stroke-width="12" stroke-miterlimit="10" stroke-linecap="round" stroke-linejoin="round"/>
<path d="M278.07 205.95H237.97C235.8 205.95 234.04 204.19 234.04 202.02V176.21C234.04 174.04 235.8 172.28 237.97 172.28H278.07C280.24 172.28 282 174.04 282 176.21V202.02C282 204.19 280.24 205.95 278.07 205.95Z" stroke="#6A0BFF" stroke-width="12" stroke-miterlimit="10" stroke-linecap="round" stroke-linejoin="round"/>
<path d="M84.45 255.38V264.3" stroke="#6A0BFF" stroke-width="12" stroke-miterlimit="10" stroke-linecap="round" stroke-linejoin="round"/>
<path d="M104.04 255.38V264.3" stroke="#6A0BFF" stroke-width="12" stroke-miterlimit="10" stroke-linecap="round" stroke-linejoin="round"/>
<path d="M123.64 255.38V264.3" stroke="#6A0BFF" stroke-width="12" stroke-miterlimit="10" stroke-linecap="round" stroke-linejoin="round"/>
<path d="M143.23 255.38V264.3" stroke="#6A0BFF" stroke-width="12" stroke-miterlimit="10" stroke-linecap="round" stroke-linejoin="round"/>
<path d="M173.9 255.38V264.3" stroke="#6A0BFF" stroke-width="12" stroke-miterlimit="10" stroke-linecap="round" stroke-linejoin="round"/>
<path d="M193.49 255.38V264.3" stroke="#6A0BFF" stroke-width="12" stroke-miterlimit="10" stroke-linecap="round" stroke-linejoin="round"/>
<path d="M213.08 255.38V264.3" stroke="#6A0BFF" stroke-width="12" stroke-miterlimit="10" stroke-linecap="round" stroke-linejoin="round"/>
<path d="M242.81 255.38V264.3" stroke="#6A0BFF" stroke-width="12" stroke-miterlimit="10" stroke-linecap="round" stroke-linejoin="round"/>
<path d="M262.4 255.38V264.3" stroke="#6A0BFF" stroke-width="12" stroke-miterlimit="10" stroke-linecap="round" stroke-linejoin="round"/>
<path d="M282 255.38V264.3" stroke="#6A0BFF" stroke-width="12" stroke-miterlimit="10" stroke-linecap="round" stroke-linejoin="round"/>
<path d="M84.45 172.27H171.71" stroke="#6A0BFF" stroke-width="12" stroke-miterlimit="10" stroke-linecap="round" stroke-linejoin="round"/>
<path d="M84.45 196.45H116.87" stroke="#6A0BFF" stroke-width="12" stroke-miterlimit="10" stroke-linecap="round" stroke-linejoin="round"/>
</svg>
